<svg width="174" height="35" xmlns="http://www.w3.org/2000/svg" xmlns:xlink="http://www.w3.org/1999/xlink"><defs><path id="a" d="M0 .463h27.29V34.5H0z"/><path id="c" d="M.278.412h4.044v4.145H.278z"/></defs><g fill="none" fill-rule="evenodd"><path d="M147.816 29.97c-3.238 0-6.477-.044-9.714.018-1.97.037-3.975-1.984-3.969-3.85.005-1.556-.024-3.114.007-4.67.04-2.006 1.828-3.771 3.843-3.78 3.873-.015 7.747-.008 11.62.015.815.005 1.63.015 2.445.018.238 0 .288.06.273.31-.112 1.896-1.626 3.33-2.956 3.634-.304.07-.609.116-.923.116-3.299-.004-6.596.001-9.894-.009-.286 0-.388.05-.382.364.021 1.149.014 2.299.002 3.449-.002.238.07.295.302.295 5.132-.006 10.266-.006 15.398 0 .21 0 .288-.04.288-.273-.007-3.94-.007-7.88 0-11.82 0-.227-.067-.279-.284-.277-1.187.006-2.375-.003-3.562-.007-3.309-.01-6.618-.02-9.928-.033a4.006 4.006 0 01-.751-.055c-1.11-.22-1.674-1.194-1.436-2.455.181-.96.838-1.535 1.837-1.537 4.796-.009 9.593-.021 14.39.005 2.03.01 3.648 1.677 3.757 3.765.008.167.012.335.012.502 0 5.282-.005 10.563.01 15.844.001.376-.106.442-.455.44-3.31-.014-6.62-.008-9.93-.008M40.861 9.419h7.988c2.25.001 3.947 1.692 3.976 3.955.018 1.352.048 2.704.059 4.056.017 2.379-1.579 3.93-3.138 4.237a5.11 5.11 0 01-.964.096c-3.334.007-6.668-.034-10.002.018-2.171.034-4.091-2.004-4.15-3.938-.005-.195.056-.264.242-.244.047.006.095.001.144.001 3.621-.006 7.243-.01 10.864-.02.9-.002 1.798-.026 2.697-.025.22 0 .285-.066.283-.285-.01-1.162-.01-2.323.001-3.485.003-.232-.08-.274-.29-.274-5.134.005-10.267.005-15.4-.002-.235 0-.273.085-.273.293.005 3.892.009 7.784-.005 11.675 0 .348.174.317.4.317 4.808-.003 9.618-.002 14.427-.002.3 0 .6.009.9-.003.18-.007.25.042.238.238-.127 2.278-1.96 3.98-4.034 3.957a457.337 457.337 0 00-11.945.004c-1.996.03-4.016-1.99-4.017-3.934-.002-4.252-.016-8.504.006-12.755.01-2.125 1.839-3.879 3.97-3.88h8.023" fill="#FFF"/><g transform="translate(0 .037)"><mask id="b" fill="#fff"><use xlink:href="#a"/></mask><path d="M27.289.485c.008.156-.092.255-.154.366-5.972 10.765-11.946 21.528-17.92 32.292-.203.365-.42.725-.603 1.1-.101.205-.233.258-.45.257-2.615-.007-5.229-.004-7.843-.005-.382 0-.383-.003-.2-.333L18.663.742c.089-.16.158-.28.394-.279 2.698.012 5.396.008 8.095.009.044 0 .09.008.137.013" fill="#D81703" mask="url(#b)"/></g><path d="M117.655 10.916c.2-.921.864-1.485 1.846-1.492 2.23-.016 4.462-.038 6.692.006 2.119.041 3.757 1.754 3.77 3.935.024 4.203.024 8.407 0 12.61-.012 2.06-1.581 3.736-3.626 3.982-.322.039-.417-.04-.416-.382.012-5.221.005-10.442.017-15.663 0-.341-.103-.407-.419-.405a276.9 276.9 0 01-5.468-.002c-.364-.005-.423.11-.422.44.013 3.258-.012 6.515.018 9.772.012 1.236-1.142 2.218-2.172 2.159-1.026-.059-1.722-.706-1.83-1.726a5.066 5.066 0 01-.024-.537c-.001-3.234-.007-6.467.007-9.7.002-.34-.1-.408-.419-.406-1.822.015-3.645.019-5.467-.002-.363-.005-.423.107-.422.44.011 5.208.008 10.417.008 15.626 0 .433 0 .41-.44.378-1.815-.128-3.643-2.114-3.617-4.14.054-4.095.016-8.19.016-12.286 0-2.358 1.752-4.104 4.115-4.104 2.099 0 4.198-.002 6.296 0 .898.002 1.615.565 1.834 1.426.026.062.05.125.078.186.026-.034.008-.085.045-.115M81.289 29.97c-3.874 0-7.748-.002-11.621.008-.29 0-.382-.057-.382-.367.01-5.4.005-10.802.01-16.203A3.985 3.985 0 0173.3 9.42c5.35 0 10.698-.002 16.047 0 2.123.002 3.791 1.592 3.929 3.709.02.32-.058.395-.378.394-6.368-.01-12.737-.004-19.105-.016-.367 0-.47.08-.468.46.016 3.832.016 7.665 0 11.497-.001.359.1.42.436.42 6.368-.01 12.736-.004 19.105-.017.358 0 .43.1.422.436a85.679 85.679 0 000 3.305c.005.305-.083.372-.378.37-3.874-.01-7.747-.006-11.621-.006M61.4 15.258c0 3.412.006 6.825-.009 10.238-.002.329.095.39.4.388.67-.005 1.345-.067 2.012.036 1.273.196 1.686 1.238 1.58 2.23-.132 1.249-.829 1.832-2.1 1.817-.886-.01-1.772.062-2.657-.054-1.462-.19-3.308-2.01-3.29-3.936.041-4.585.019-9.171.023-13.757.003-3.556.012-7.113.003-10.669-.001-.338.089-.426.419-.39 2.013.214 3.529 1.764 3.599 3.788.053 1.555.018 3.112.02 4.67.001 1.879 0 3.759 0 5.639m108.438 4.437c0 3.294-.005 6.587.008 9.88.002.322-.08.398-.396.393-1.163-.02-2.327-.014-3.49-.003-.243.002-.33-.06-.33-.317.007-6.66.006-13.318.002-19.978 0-.217.037-.32.293-.318 1.199.013 2.398.018 3.597-.002.3-.005.321.115.32.356-.006 3.33-.004 6.66-.004 9.99m-67.995.35c0 3.186-.005 6.37.01 9.556 0 .33-.097.392-.402.387a124.4 124.4 0 00-3.346-.002c-.263.003-.371-.041-.37-.345.01-6.407.01-12.813 0-19.22 0-.295.093-.355.366-.351 1.127.014 2.254.017 3.38-.002.312-.005.37.099.369.385-.01 3.197-.007 6.395-.007 9.592m.019-14.472l-.001 1.796c0 .113.032.255-.16.25-.899-.016-1.8.063-2.695-.035-1.434-.156-1.877-1.455-1.61-2.614.201-.879.844-1.398 1.823-1.436.802-.03 1.606-.002 2.41-.013.2-.002.238.081.235.256-.007.598-.002 1.197-.002 1.796m62.503-2.623c1.24.008 2.012.805 2.008 2.078-.004 1.054-1 2.06-2.048 2.065-1.2.007-2.003-.836-2-2.099.004-1.26.792-2.051 2.04-2.044" fill="#FFF"/><g transform="translate(169 2.537)"><mask id="d" fill="#fff"><use xlink:href="#c"/></mask><path d="M4.32 2.4c.047 1.065-.924 2.115-1.992 2.156C1.145 4.6.332 3.78.28 2.493.232 1.31 1.026.463 2.226.413 3.472.366 4.264 1.116 4.32 2.4" fill="#FFF" mask="url(#d)"/></g><path d="M117.655 10.916c0 .062.042.174-.047.161-.111-.016-.09-.14-.076-.232l.123.071" fill="#A0A0A0"/></g></svg>